<?xml version="1.0" encoding="UTF-8"?>
<svg width="157px" height="110px" viewBox="0 0 157 110" version="1.1" xmlns="http://www.w3.org/2000/svg" xmlns:xlink="http://www.w3.org/1999/xlink">
    <!-- Generator: Sketch 49.3 (51167) - http://www.bohemiancoding.com/sketch -->
    <title>jive logo@2x</title>
    <desc>Created with Sketch.</desc>
    <defs></defs>
    <g id="Page-1" stroke="none" stroke-width="1" fill="none" fill-rule="evenodd">
        <g id="jive-logo" fill="#FFFFFF">
            <path d="M21,38.7725425 L0,18.2725425 C29.6666667,8.93920915 49.8333333,3.60587582 60.5,2.27254249 C76.5,0.272542486 119,-5.72745751 141.5,16.2725425 C164,38.2725425 156,63.7725425 153.5,76.2725425 C151,88.7725425 145.5,97 141.5,102.5 C137.5,108 129,109.5 128,109 C127.333333,108.666667 125.666667,107.090847 123,104.272542 C130,99.7875708 134.833333,94.1209041 137.5,87.2725425 C141.5,77 150.5,51.2725425 139.5,35.7725425 C128.5,20.2725425 120,12.7725425 89.5,16.2725425 C69.1666667,18.6058758 46.3333333,26.1058758 21,38.7725425 Z" id="Path-4"></path>
            <path d="M53.5149317,47.9527745 L40,34.7596269 C59.0925226,28.7529905 72.0711475,25.3206269 78.9358748,24.462536 C89.2329656,23.1753997 116.584613,19.3139906 131.064897,33.4724905 C145.545181,47.6309904 140.396636,64.041979 138.787715,72.0865812 C137.178795,80.1311834 133.63917,85.4261133 131.064897,88.9657382 C128.490624,92.5053632 123.020295,93.4707155 122.376727,93.1489314 C121.947681,92.9344087 120.875068,91.9202616 119.158886,90.1064902 C123.663863,87.2201051 126.774443,83.5732188 128.490624,79.1658312 C131.064897,72.5547497 136.857011,55.9973767 129.777761,46.02207 C122.698511,36.0467632 117.228181,31.2200019 97.5993519,33.4724905 C84.5134656,34.9741496 69.8186589,39.8009109 53.5149317,47.9527745 Z" id="Path-4"></path>
            <path d="M70.0475613,55.7046169 L61,46.8724737 C73.7814755,42.8513354 82.4700066,40.553542 87.0655933,39.9790937 C93.9589733,39.1174212 112.269514,36.5324037 121.96333,46.0108012 C131.657145,55.4891988 128.210455,66.4755232 127.133365,71.8609764 C126.056274,77.2464295 123.686675,80.7911165 121.96333,83.1607159 C120.239985,85.5303153 116.577877,86.1765696 116.14704,85.9611515 C115.859816,85.8175394 115.141756,85.1386194 113.992859,83.9243914 C117.008713,81.9921031 119.091088,79.5506976 120.239985,76.6001751 C121.96333,72.1743914 125.840856,61.0900701 121.101657,54.4121081 C116.362458,47.7341462 112.70035,44.5028743 99.5598446,46.0108012 C90.7995075,47.0160858 80.9620797,50.2473577 70.0475613,55.7046169 Z" id="Path-4"></path>
        </g>
    </g>
</svg>