<?xml version="1.0" encoding="UTF-8" standalone="no"?>
<!-- Created with Inkscape (http://www.inkscape.org/) -->

<svg
   xmlns:dc="http://purl.org/dc/elements/1.1/"
   xmlns:cc="http://creativecommons.org/ns#"
   xmlns:rdf="http://www.w3.org/1999/02/22-rdf-syntax-ns#"
   xmlns:svg="http://www.w3.org/2000/svg"
   xmlns="http://www.w3.org/2000/svg"
   xmlns:sodipodi="http://sodipodi.sourceforge.net/DTD/sodipodi-0.dtd"
   xmlns:inkscape="http://www.inkscape.org/namespaces/inkscape"
   width="100"
   height="100"
   viewBox="0 0 26.458333 26.458334"
   version="1.1"
   id="svg8"
   inkscape:version="0.92.3 (2405546, 2018-03-11)"
   sodipodi:docname="diet2.svg"
   inkscape:export-filename="C:\Users\USER\Desktop\Amos Sis\dietlyf\img\diet3.png"
   inkscape:export-xdpi="45.000015"
   inkscape:export-ydpi="45.000015">
  <defs
     id="defs2" />
  <sodipodi:namedview
     id="base"
     pagecolor="#ffffff"
     bordercolor="#666666"
     borderopacity="1.0"
     inkscape:pageopacity="0.0"
     inkscape:pageshadow="2"
     inkscape:zoom="5.8264706"
     inkscape:cx="27.824331"
     inkscape:cy="41.428571"
     inkscape:document-units="mm"
     inkscape:current-layer="g46"
     showgrid="false"
     inkscape:window-width="1920"
     inkscape:window-height="1018"
     inkscape:window-x="-8"
     inkscape:window-y="-8"
     inkscape:window-maximized="1"
     units="px" />
  <metadata
     id="metadata5">
    <rdf:RDF>
      <cc:Work
         rdf:about="">
        <dc:format>image/svg+xml</dc:format>
        <dc:type
           rdf:resource="http://purl.org/dc/dcmitype/StillImage" />
        <dc:title />
      </cc:Work>
    </rdf:RDF>
  </metadata>
  <g
     inkscape:label="Layer 1"
     inkscape:groupmode="layer"
     id="layer1"
     transform="translate(0,-270.54165)">
    <g
       id="g46"
       transform="matrix(0.26458333,0,0,0.26458333,0.37798114,270.91965)"
       style="fill:#000080">
      <path
         id="path28"
         d="M 50,7.333313 C 26.435852,7.333313 7.333313,26.435791 7.333313,50 7.333313,73.564087 26.435852,92.666626 50,92.666626 73.564148,92.666626 92.666687,73.564087 92.666687,50 92.666687,26.435791 73.564148,7.333313 50,7.333313 Z m 9.906433,56.065796 c -2.089599,3.318176 -6.854919,8.05658 -15.047485,7.475647 -5.651001,-0.401306 -9.06073,-1.871338 -10.751221,-2.83728 -2.591492,-0.991761 -3.709167,-2.013489 -3.709167,-2.013489 -3.295105,-2.487122 -6.550782,-4.367493 -9.402161,-5.77533 -0.01862,-0.0047 -0.03406,-0.01617 -0.04761,-0.02271 -4.119263,-1.800659 -6.927063,-2.461914 -6.927063,-2.461914 l 0.620849,-0.671082 c 2.824707,-4.639282 10.534729,-6.732727 15.259277,-5.343566 4.719483,1.39093 9.085266,3.697204 13.510315,4.063354 4.423218,0.361145 6.893189,0.402344 6.893189,0.402344 -3.647888,6.877807 -16.636963,3.059204 -16.636963,3.059204 1.90918,1.983704 3.746033,3.411499 5.502685,4.404846 11.003113,6.248047 18.626465,-4.744629 18.626465,-4.744629 l 3.213928,-4.528503 c 0.616028,-0.556519 1.172974,-0.945252 1.671448,-1.211792 2.045471,-1.095703 3.082947,-0.124695 3.082947,-0.124695 0,0 -3.774963,7.013062 -5.859436,10.32959 z m 2.478333,-24.665405 c 0.392028,0.286377 0.783142,0.599853 1.178466,0.939575 -8.793212,-5.387573 -17.063659,2.529419 -17.063659,2.529419 l -4.054688,3.791626 c -2.53717,1.499267 -3.931518,1.085876 -4.539306,0.699951 0.781005,0.09326 1.941711,-0.09674 3.571106,-1.113037 l 3.963928,-3.884705 c 0,0 8.089111,-8.102905 17,-2.91803 -0.01825,-0.01318 -0.03741,-0.03162 -0.05585,-0.0448 z m -17.030152,2.437683 -3.963928,3.884582 c -1.629394,1.016358 -2.7901,1.206421 -3.571167,1.113159 -0.945373,-0.109436 -1.344604,-0.637329 -1.344604,-0.637329 0,0 0.339782,-0.427673 0.885986,-1.11029 0.53772,-0.174317 1.15448,-0.458679 1.859192,-0.897583 l 3.963012,-3.889893 c 0,0 9.407898,-9.435181 19.115784,-1.425476 0.01819,0.01312 0.03748,0.03156 0.05579,0.0448 -8.910888,-5.184998 -17.000061,2.91803 -17.000061,2.91803 z m 12.894959,11.106384 -3.215637,4.523621 c 0,0 -6.531067,9.404052 -16.21753,5.874206 0.02032,0.0098 0.04242,0.02454 0.06287,0.03424 -0.436401,-0.212586 -0.87677,-0.452088 -1.325805,-0.716614 9.606384,3.75 16.348755,-5.503052 16.348755,-5.503052 l 3.321472,-4.448059 c 2.232483,-1.923706 3.677917,-1.763061 4.34436,-1.490601 -0.785278,0.04614 -1.894165,0.438172 -3.318481,1.726258 z m 3.495849,-1.224487 c 0.94989,-0.05926 1.436097,0.389831 1.436097,0.389831 0,0 -0.258973,0.481018 -0.676026,1.249329 -0.498474,0.266479 -1.055359,0.655334 -1.671509,1.211792 L 57.620178,58.4328 c 0,0 -7.593872,10.948243 -18.563598,4.778748 -0.02032,-0.0097 -0.04248,-0.02448 -0.06287,-0.03418 9.686524,3.529846 16.217652,-5.874267 16.217652,-5.874267 l 3.215576,-4.523499 c 1.424316,-1.288208 2.533264,-1.680176 3.318481,-1.726318 z m 7.540223,0.05402 C 64.885864,48.904785 60.996033,45.86377 56.7052,44.721924 c -4.289978,-1.136536 -6.713867,-1.613281 -6.713867,-1.613281 4.805115,-6.125489 16.915772,-0.07312 16.915772,-0.07312 -1.528931,-2.289672 -3.084778,-4.01947 -4.638367,-5.307373 -9.726868,-8.092895 -19.171631,1.380738 -19.171631,1.380738 l -3.963135,3.889831 c -0.704651,0.438965 -1.321411,0.723206 -1.85907,0.897583 -2.206909,0.717224 -3.056579,-0.421692 -3.056579,-0.421692 0,0 4.954162,-6.236206 7.591491,-9.132507 2.642701,-2.897034 8.169983,-6.719421 16.131104,-4.700928 5.491333,1.392884 8.587952,3.441956 10.081238,4.691285 2.375671,1.433776 3.295288,2.636779 3.295288,2.636779 2.804138,3.03003 5.676635,5.455689 8.234619,7.344971 0.01746,0.0079 0.03058,0.02191 0.04278,0.03076 3.736573,2.499756 6.383423,3.646484 6.383423,3.646484 l -0.729553,0.550903 c -3.59967,4.067566 -11.558166,4.766541 -15.963073,2.564942 z"
         inkscape:connector-curvature="0"
         style="fill:#ffffff;fill-opacity:1" />
      <text
         id="text30"
         font-weight="bold"
         font-size="5px"
         y="115"
         x="0"
         style="font-weight:bold;font-size:5px;font-family:'Helvetica Neue', Helvetica, Arial-Unicode, Arial, Sans-serif;fill:#000080" />
      <text
         id="text32"
         font-weight="bold"
         font-size="5px"
         y="120"
         x="0"
         style="font-weight:bold;font-size:5px;font-family:'Helvetica Neue', Helvetica, Arial-Unicode, Arial, Sans-serif;fill:#000080" />
    </g>
  </g>
  <style
     id="style26"
     fill="#ffffff"
     type="text/css">
	.st0{fill:white;}
</style>
</svg>
