<svg xmlns="http://www.w3.org/2000/svg" xmlns:xlink="http://www.w3.org/1999/xlink" version="1.1" x="0px" y="0px" viewBox="0 0 100 125" style="enable-background:new 0 0 100 100;" xml:space="preserve"><style type="text/css" fill="#ffffff">
	.st0{fill:white;}
</style><path d="M50,7.333313C26.4358521,7.333313,7.333313,26.435791,7.333313,50c0,23.5640869,19.1025391,42.666626,42.666687,42.666626  S92.666687,73.5640869,92.666687,50C92.666687,26.435791,73.5641479,7.333313,50,7.333313z M59.9064331,63.3991089  c-2.0895996,3.3181763-6.8549194,8.0565796-15.0474854,7.475647c-5.651001-0.4013062-9.06073-1.8713379-10.7512207-2.8372803  c-2.5914917-0.9917603-3.7091675-2.0134888-3.7091675-2.0134888c-3.295105-2.4871216-6.5507813-4.3674927-9.4021606-5.7753296  c-0.0186157-0.0046997-0.0340576-0.0161743-0.0476074-0.0227051c-4.1192627-1.8006592-6.927063-2.4619141-6.927063-2.4619141  l0.6208496-0.6710815c2.824707-4.6392822,10.534729-6.7327271,15.2592773-5.3435669  c4.7194824,1.3909302,9.0852661,3.6972046,13.5103149,4.0633545c4.4232178,0.361145,6.8931885,0.4023438,6.8931885,0.4023438  C46.6574707,63.0928955,33.668396,59.274292,33.668396,59.274292c1.9091797,1.9837036,3.7460327,3.411499,5.5026855,4.4048462  c11.0031128,6.2480469,18.6264648-4.7446289,18.6264648-4.7446289l3.2139282-4.5285034  c0.6160278-0.5565186,1.1729736-0.9452515,1.6714478-1.211792c2.0454712-1.0957031,3.0829468-0.1246948,3.0829468-0.1246948  S61.9909058,60.0825806,59.9064331,63.3991089z M62.3847656,38.7337036c0.3920288,0.286377,0.7831421,0.5998535,1.1784668,0.9395752  c-8.7932129-5.3875732-17.0636597,2.5294189-17.0636597,2.5294189l-4.0546875,3.791626  c-2.5371704,1.4992676-3.9315186,1.0858765-4.5393066,0.6999512c0.7810059,0.0932617,1.9417114-0.0967407,3.571106-1.1130371  l3.9639282-3.8847046c0,0,8.0891113-8.1029053,17-2.9180298C62.4223633,38.7653198,62.4031982,38.7468872,62.3847656,38.7337036z   M45.3546143,41.1713867l-3.9639282,3.8845825c-1.6293945,1.0163574-2.7901001,1.2064209-3.571167,1.1131592  c-0.9453735-0.109436-1.3446045-0.6373291-1.3446045-0.6373291s0.3397827-0.4276733,0.8859863-1.1102905  c0.5377197-0.1743164,1.15448-0.4586792,1.8591919-0.897583l3.9630127-3.8898926c0,0,9.4078979-9.4351807,19.1157837-1.4254761  c0.0181885,0.0131226,0.0374756,0.0315552,0.0557861,0.0447998C53.4437866,33.0683594,45.3546143,41.1713867,45.3546143,41.1713867z   M58.2495728,52.277771l-3.2156372,4.5236206c0,0-6.5310669,9.4040527-16.2175293,5.8742065  c0.0203247,0.0097656,0.0424194,0.0245361,0.0628662,0.0342407c-0.4364014-0.2125854-0.87677-0.4520874-1.3258057-0.7166138  c9.6063843,3.75,16.3487549-5.5030518,16.3487549-5.5030518l3.3214722-4.4480591  c2.2324829-1.9237061,3.6779175-1.7630615,4.3443604-1.4906006C60.7827759,50.5976563,59.6738892,50.9896851,58.2495728,52.277771z   M61.7454224,51.0532837c0.9498901-0.0592651,1.4360962,0.3898315,1.4360962,0.3898315s-0.2589722,0.4810181-0.6760254,1.2493286  c-0.4984741,0.2664795-1.0553589,0.6553345-1.6715088,1.211792l-3.2138062,4.5285645c0,0-7.5938721,10.9482422-18.5635986,4.7787476  c-0.0203247-0.0097046-0.0424805-0.0244751-0.0628662-0.0341797c9.6865234,3.5298462,16.2176514-5.8742676,16.2176514-5.8742676  l3.2155762-4.5234985C59.8512573,51.491394,60.9602051,51.0994263,61.7454224,51.0532837z M69.2856445,51.1072998  c-4.3997803-2.2025146-8.2896118-5.2435303-12.5804443-6.385376c-4.289978-1.1365356-6.7138672-1.6132813-6.7138672-1.6132813  c4.8051147-6.1254883,16.9157715-0.0731201,16.9157715-0.0731201c-1.5289307-2.2896729-3.0847778-4.0194702-4.6383667-5.307373  c-9.7268677-8.0928955-19.1716309,1.3807373-19.1716309,1.3807373l-3.9631348,3.8898315  c-0.7046509,0.4389648-1.3214111,0.7232056-1.8590698,0.897583c-2.2069092,0.7172241-3.0565796-0.4216919-3.0565796-0.4216919  s4.9541626-6.2362061,7.5914917-9.1325073c2.6427002-2.8970337,8.1699829-6.7194214,16.1311035-4.7009277  c5.491333,1.3928833,8.5879517,3.4419556,10.0812378,4.6912842c2.3756714,1.4337769,3.2952881,2.6367798,3.2952881,2.6367798  c2.8041382,3.0300293,5.6766357,5.4556885,8.2346191,7.3449707c0.0174561,0.0078735,0.0305786,0.0219116,0.0427856,0.0307617  c3.7365723,2.4997559,6.3834229,3.6464844,6.3834229,3.6464844l-0.7295532,0.5509033  C81.6490479,52.6099243,73.6905518,53.3088989,69.2856445,51.1072998z"/><text x="0" y="115" fill="#ffffff" font-size="5px" font-weight="bold" font-family="'Helvetica Neue', Helvetica, Arial-Unicode, Arial, Sans-serif"></text><text x="0" y="120" fill="#ffffff" font-size="5px" font-weight="bold" font-family="'Helvetica Neue', Helvetica, Arial-Unicode, Arial, Sans-serif"></text></svg>